# xmcd
#
# Track frame offsets: 
#        150
#        18472
#        37807
#        70297
#        86412
#        98112
#        120582
#        165657
#        181410
#        198725
#        211865
#        213892
#
# Disc length: 3040 seconds
#
# Revision: 0
# Processed by: cddbd v1.5.2PL0 Copyright (c) Steve Scherf et al.
# Submitted via: ExactAudioCopy v0.99pb5
#
DISCID=9d0bde0c
DTITLE=Ray Pasnen - Live in Bermuda - CD2
DYEAR=1998
DGENRE=Country
TTITLE0=Call Me Al
TTITLE1=Phoopa - Island Jam
TTITLE2=Basil - Dock of the Bay, My Girl
TTITLE3=Brown Eyed Girl
TTITLE4=Blow Me
TTITLE5=Tom - Wild Rover, Irish Folk Song
TTITLE6=American Pie, Life is a Highway
TTITLE7=The Gambler
TTITLE8=As Far As You Want Me To Go
TTITLE9=Last Last Chance
TTITLE10=Good Bye
TTITLE11=Dance Of A Lifetime
EXTD=
EXTT0=
EXTT1=
EXTT2=
EXTT3=
EXTT4=
EXTT5=
EXTT6=
EXTT7=
EXTT8=
EXTT9=
EXTT10=
EXTT11=
PLAYORDER=
